<?xml version="1.0" encoding="UTF-8"?><svg id="b" xmlns="http://www.w3.org/2000/svg" xmlns:xlink="http://www.w3.org/1999/xlink" viewBox="0 0 154.98 154.98"><defs><clipPath id="e"><rect x="4.22" y="8.44" width="146.54" height="138.1" style="fill:none;"/></clipPath><clipPath id="f"><rect x="4.22" y="8.44" width="146.54" height="138.1" style="fill:none;"/></clipPath><clipPath id="g"><rect x="4.22" y="8.44" width="146.54" height="138.1" style="fill:none;"/></clipPath><clipPath id="h"><rect x="5.6" y="109.44" width="32.35" height="37.1" style="fill:none;"/></clipPath><clipPath id="i"><rect x="42.34" y="109.44" width="33.71" height="37.1" style="fill:none;"/></clipPath><clipPath id="j"><rect x="81.6" y="109.93" width="31.31" height="36.13" style="fill:none;"/></clipPath><clipPath id="k"><rect x="119.46" y="109.93" width="31.31" height="36.13" style="fill:none;"/></clipPath></defs><g id="c"><rect width="154.98" height="154.98" rx="4.82" ry="4.82" style="fill:#efefe7;"/><g id="d"><g style="clip-path:url(#e);"><g style="clip-path:url(#f);"><g style="clip-path:url(#g);"><path d="M4.22,86.46L30.52,9.47h20.67l26.97,76.99h-17.52l-12.35-37.15c-1.48-4.79-2.99-10.03-4.52-15.74-1.53-5.7-3.14-11.92-4.83-18.67h3.46c-1.65,6.78-3.2,13.05-4.62,18.78-1.43,5.74-2.85,10.95-4.27,15.63l-11.88,37.15H4.22ZM20.66,56.24h41.08v12.35H20.66v-12.35Z" style="fill:#231f20;"/><path d="M117.33,87.5c-7.2,0-13.51-1.59-18.94-4.78-5.43-3.19-9.66-7.74-12.71-13.64-3.04-5.9-4.57-12.91-4.57-21s1.58-15.46,4.75-21.37c3.17-5.9,7.46-10.42,12.86-13.56,5.41-3.13,11.49-4.7,18.24-4.7,4.34,0,8.38.63,12.12,1.88,3.74,1.26,7.06,3.04,9.97,5.35,2.91,2.31,5.28,5.04,7.13,8.19,1.84,3.15,3.04,6.64,3.59,10.46h-16.02c-.56-1.86-1.32-3.52-2.3-4.99-.98-1.47-2.17-2.71-3.57-3.74-1.39-1.03-2.98-1.82-4.78-2.35-1.79-.53-3.75-.8-5.89-.8-3.96,0-7.45.99-10.49,2.97-3.03,1.98-5.39,4.86-7.08,8.65-1.68,3.79-2.53,8.41-2.53,13.85s.83,10.07,2.51,13.88c1.67,3.8,4.02,6.71,7.05,8.71,3.03,2,6.62,3,10.75,3,3.72,0,6.9-.68,9.56-2.02,2.65-1.35,4.7-3.26,6.12-5.76,1.43-2.5,2.15-5.42,2.15-8.76l3.31.47h-20.05v-11.99h32.04v9.61c0,6.75-1.43,12.55-4.29,17.39-2.86,4.84-6.78,8.56-11.78,11.16-5,2.6-10.71,3.9-17.15,3.9" style="fill:#231f20;"/><g style="opacity:.5;"><g style="clip-path:url(#h);"><path d="M22.39,146.54c-3.2,0-6.07-.73-8.6-2.18-2.53-1.46-4.53-3.57-5.99-6.33-1.46-2.77-2.2-6.1-2.2-10.01s.74-7.28,2.21-10.05c1.47-2.77,3.48-4.89,6.01-6.34,2.54-1.46,5.39-2.19,8.56-2.19,2.06,0,3.96.29,5.74.86,1.77.57,3.34,1.41,4.71,2.51,1.38,1.1,2.5,2.44,3.37,4.04.87,1.59,1.45,3.41,1.72,5.44h-7.49c-.16-1-.47-1.89-.93-2.65-.46-.77-1.03-1.43-1.72-1.97-.69-.54-1.47-.95-2.36-1.24-.89-.28-1.85-.42-2.89-.42-1.87,0-3.52.47-4.93,1.41-1.42.94-2.52,2.3-3.3,4.08-.78,1.79-1.18,3.96-1.18,6.52s.39,4.79,1.19,6.57c.79,1.78,1.89,3.12,3.3,4.02s3.04,1.36,4.9,1.36c1.04,0,2-.14,2.88-.43.88-.28,1.67-.7,2.38-1.24.7-.54,1.28-1.2,1.74-1.98.46-.77.78-1.65.96-2.64h7.49c-.19,1.68-.69,3.29-1.49,4.83-.8,1.53-1.86,2.91-3.19,4.12-1.33,1.21-2.9,2.17-4.73,2.86-1.82.7-3.88,1.04-6.16,1.04" style="fill:#252518;"/></g></g><g style="opacity:.5;"><g style="clip-path:url(#i);"><path d="M59.2,146.54c-3.18,0-6.05-.73-8.6-2.18-2.55-1.46-4.56-3.57-6.04-6.33-1.48-2.76-2.22-6.1-2.22-10.01s.74-7.28,2.22-10.05c1.48-2.77,3.49-4.89,6.04-6.34,2.55-1.46,5.41-2.18,8.6-2.18s6.07.73,8.61,2.18c2.54,1.46,4.55,3.57,6.03,6.34,1.48,2.77,2.22,6.12,2.22,10.05s-.74,7.25-2.22,10.01c-1.48,2.77-3.49,4.88-6.03,6.33-2.54,1.46-5.4,2.18-8.61,2.18M59.2,139.97c1.87,0,3.51-.46,4.91-1.37,1.4-.91,2.48-2.26,3.26-4.05.77-1.79,1.16-3.97,1.16-6.54s-.39-4.8-1.16-6.59c-.78-1.79-1.86-3.13-3.26-4.05-1.4-.91-3.04-1.37-4.91-1.37s-3.49.46-4.9,1.38c-1.41.92-2.5,2.27-3.28,4.06-.77,1.79-1.16,3.97-1.16,6.56s.39,4.74,1.16,6.52c.78,1.78,1.87,3.13,3.28,4.05,1.41.92,3.03,1.38,4.9,1.38" style="fill:#252518;"/></g></g><g style="opacity:.5;"><g style="clip-path:url(#j);"><path d="M81.6,146.06v-36.13h8.24l11.42,18.28c.58.94,1.17,1.96,1.77,3.05.6,1.1,1.21,2.32,1.83,3.67.63,1.34,1.24,2.85,1.86,4.53h-.75c-.11-1.34-.21-2.77-.3-4.29-.09-1.52-.16-2.98-.23-4.37-.06-1.39-.1-2.57-.1-3.54v-17.34h7.57v36.13h-8.27l-10.38-16.59c-.76-1.24-1.47-2.45-2.11-3.63-.65-1.17-1.32-2.46-2.03-3.88-.7-1.42-1.54-3.11-2.51-5.08h.94c.1,1.75.19,3.42.29,5.02.09,1.6.17,3.05.23,4.35.06,1.3.08,2.36.08,3.19v16.61h-7.56Z" style="fill:#252518;"/></g></g><g style="opacity:.5;"><g style="clip-path:url(#k);"><path d="M119.46,146.06v-36.13h8.24l11.42,18.28c.58.94,1.17,1.96,1.77,3.05.6,1.1,1.21,2.32,1.83,3.67.63,1.34,1.24,2.85,1.86,4.53h-.75c-.11-1.34-.21-2.77-.3-4.29-.09-1.52-.16-2.98-.23-4.37-.06-1.39-.1-2.57-.1-3.54v-17.34h7.57v36.13h-8.27l-10.38-16.59c-.76-1.24-1.47-2.45-2.11-3.63-.65-1.17-1.32-2.46-2.03-3.88-.7-1.42-1.54-3.11-2.51-5.08h.94c.1,1.75.19,3.42.29,5.02.09,1.6.17,3.05.23,4.35.06,1.3.08,2.36.08,3.19v16.61h-7.56Z" style="fill:#252518;"/></g></g></g></g></g></g></g></svg>