<?xml version="1.0" encoding="UTF-8"?><svg id="b" xmlns="http://www.w3.org/2000/svg" xmlns:xlink="http://www.w3.org/1999/xlink" viewBox="0 0 405.03 405.1"><defs><clipPath id="e"><rect width="405.03" height="405.1" style="fill:none;"/></clipPath><clipPath id="f"><rect width="405.03" height="405.1" style="fill:none;"/></clipPath></defs><g id="c"><g id="d"><g style="clip-path:url(#e);"><g style="clip-path:url(#f);"><path d="M202.48.07c5.91,0,11.46,3.09,14.48,8.23l39.02,65.1,73.68-18.49c5.77-1.41,11.88.28,16.03,4.43s5.84,10.33,4.43,16.03l-18.49,73.61,65.17,39.02c5.06,3.02,8.23,8.58,8.23,14.48s-3.09,11.46-8.23,14.48l-65.17,39.09,18.49,73.61c1.41,5.76-.28,11.88-4.43,16.03-4.15,4.15-10.34,5.9-16.03,4.5l-73.61-18.49-39.02,65.17c-3.02,5.06-8.58,8.23-14.48,8.23s-11.46-3.09-14.48-8.23l-39.09-65.17-73.61,18.49c-5.76,1.41-11.81-.28-16.03-4.43-4.22-4.15-5.91-10.33-4.5-16.1l18.42-73.61L8.16,217.03C3.09,213.94,0,208.46,0,202.55s3.09-11.46,8.23-14.48l65.1-39.02-18.49-73.68c-1.41-5.76.21-11.81,4.43-16.03,4.22-4.22,10.34-5.84,16.1-4.43l73.61,18.42L188,8.23l1.27-1.83C192.43,2.39,197.28,0,202.48,0v.07ZM202.48,101.31c-55.91,0-101.24,45.33-101.24,101.24s45.33,101.24,101.24,101.24,101.24-45.33,101.24-101.24-45.33-101.24-101.24-101.24M202.48,270.04c-37.28,0-67.49-30.22-67.49-67.49s30.22-67.49,67.49-67.49,67.49,30.22,67.49,67.49-30.22,67.49-67.49,67.49" style="fill:#d9b441;"/></g></g></g></g></svg>