<?xml version="1.0" encoding="UTF-8"?><svg id="b" xmlns="http://www.w3.org/2000/svg" viewBox="0 0 29.51 27.81"><g id="c"><path d="M0,15.71L5.3.21h4.16l5.43,15.5h-3.53l-2.49-7.48c-.3-.96-.6-2.02-.91-3.17-.31-1.15-.63-2.4-.97-3.76h.7c-.33,1.37-.64,2.63-.93,3.78-.29,1.15-.57,2.2-.86,3.15l-2.39,7.48H0ZM3.31,12.11v-2.49h8.27v2.49H3.31Z" style="fill:#231f20;"/><path d="M22.77,15.92c-1.45,0-2.72-.32-3.81-.96-1.09-.64-1.95-1.56-2.56-2.75s-.92-2.6-.92-4.23.32-3.11.96-4.3c.64-1.19,1.5-2.1,2.59-2.73,1.09-.63,2.31-.95,3.67-.95.87,0,1.69.13,2.44.38.75.25,1.42.61,2.01,1.08.59.46,1.06,1.01,1.44,1.65.37.63.61,1.34.72,2.11h-3.23c-.11-.37-.27-.71-.46-1-.2-.29-.44-.55-.72-.75-.28-.21-.6-.37-.96-.47-.36-.11-.76-.16-1.19-.16-.8,0-1.5.2-2.11.6s-1.09.98-1.43,1.74-.51,1.69-.51,2.79.17,2.03.5,2.79c.34.77.81,1.35,1.42,1.75s1.33.6,2.16.6c.75,0,1.39-.14,1.92-.41s.95-.66,1.23-1.16c.29-.5.43-1.09.43-1.76l.67.09h-4.04v-2.41h6.45v1.94c0,1.36-.29,2.53-.86,3.5s-1.37,1.72-2.37,2.25c-1.01.52-2.16.79-3.45.79Z" style="fill:#231f20;"/><path d="M3.66,27.81c-.64,0-1.22-.15-1.73-.44s-.91-.72-1.21-1.27-.44-1.23-.44-2.02.15-1.47.44-2.02.7-.98,1.21-1.28,1.09-.44,1.72-.44c.41,0,.8.06,1.15.17s.67.28.95.51.5.49.68.81.29.69.35,1.1h-1.51c-.03-.2-.1-.38-.19-.53s-.21-.29-.35-.4-.3-.19-.48-.25-.37-.09-.58-.09c-.38,0-.71.09-.99.28s-.51.46-.66.82-.24.8-.24,1.31.08.97.24,1.32.38.63.66.81.61.27.99.27c.21,0,.4-.03.58-.09s.34-.14.48-.25.26-.24.35-.4.16-.33.19-.53h1.51c-.04.34-.14.66-.3.97s-.38.59-.64.83-.58.44-.95.58-.78.21-1.24.21Z" style="fill:#252518; opacity:.5;"/><path d="M11.07,27.81c-.64,0-1.22-.15-1.73-.44s-.92-.72-1.22-1.27-.45-1.23-.45-2.02.15-1.47.45-2.02.7-.98,1.22-1.28,1.09-.44,1.73-.44,1.22.15,1.73.44.92.72,1.21,1.28.45,1.23.45,2.02-.15,1.46-.45,2.02-.7.98-1.21,1.27-1.09.44-1.73.44ZM11.07,26.48c.38,0,.71-.09.99-.28s.5-.46.66-.82.23-.8.23-1.32-.08-.97-.23-1.33-.38-.63-.66-.82-.61-.28-.99-.28-.7.09-.99.28-.5.46-.66.82-.23.8-.23,1.32.08.96.23,1.31.38.63.66.82.61.28.99.28Z" style="fill:#252518; opacity:.5;"/><path d="M15.58,27.71v-7.28h1.66l2.3,3.68c.12.19.24.39.36.62s.24.47.37.74.25.57.37.91h-.15c-.02-.27-.04-.56-.06-.86s-.03-.6-.05-.88-.02-.52-.02-.71v-3.49h1.52v7.28h-1.67l-2.09-3.34c-.15-.25-.29-.49-.42-.73s-.27-.5-.41-.78-.31-.63-.51-1.02h.19c.02.35.04.69.06,1.01s.04.61.05.88.02.48.02.64v3.34h-1.52Z" style="fill:#252518; opacity:.5;"/><path d="M23.2,27.71v-7.28h1.66l2.3,3.68c.12.19.24.39.36.62s.24.47.37.74.25.57.37.91h-.15c-.02-.27-.04-.56-.06-.86s-.03-.6-.05-.88-.02-.52-.02-.71v-3.49h1.52v7.28h-1.67l-2.09-3.34c-.15-.25-.29-.49-.42-.73s-.27-.5-.41-.78-.31-.63-.51-1.02h.19c.02.35.04.69.06,1.01s.04.61.05.88.02.48.02.64v3.34h-1.52Z" style="fill:#252518; opacity:.5;"/></g></svg>