<?xml version="1.0" encoding="UTF-8"?><svg id="b" xmlns="http://www.w3.org/2000/svg" viewBox="0 0 93.75 15.92"><g id="c"><path d="M0,15.71L5.3.21h4.16l5.43,15.5h-3.53l-2.49-7.48c-.3-.96-.6-2.02-.91-3.17-.31-1.15-.63-2.4-.97-3.76h.7c-.33,1.37-.64,2.63-.93,3.78-.29,1.15-.57,2.2-.86,3.15l-2.39,7.48H0ZM3.31,12.11v-2.49h8.27v2.49H3.31Z" style="fill:#231f20;"/><path d="M22.77,15.92c-1.45,0-2.72-.32-3.81-.96-1.09-.64-1.95-1.56-2.56-2.75s-.92-2.6-.92-4.23.32-3.11.96-4.3c.64-1.19,1.5-2.1,2.59-2.73,1.09-.63,2.31-.95,3.67-.95.87,0,1.69.13,2.44.38.75.25,1.42.61,2.01,1.08.59.46,1.06,1.01,1.44,1.65.37.63.61,1.34.72,2.11h-3.23c-.11-.37-.27-.71-.46-1-.2-.29-.44-.55-.72-.75-.28-.21-.6-.37-.96-.47-.36-.11-.76-.16-1.19-.16-.8,0-1.5.2-2.11.6s-1.09.98-1.43,1.74-.51,1.69-.51,2.79.17,2.03.5,2.79c.34.77.81,1.35,1.42,1.75s1.33.6,2.16.6c.75,0,1.39-.14,1.92-.41s.95-.66,1.23-1.16c.29-.5.43-1.09.43-1.76l.67.09h-4.04v-2.41h6.45v1.94c0,1.36-.29,2.53-.86,3.5s-1.37,1.72-2.37,2.25c-1.01.52-2.16.79-3.45.79Z" style="fill:#231f20;"/><path d="M38.67,15.92c-1.37,0-2.6-.31-3.69-.94-1.09-.62-1.94-1.53-2.57-2.72-.63-1.19-.94-2.62-.94-4.3s.32-3.12.95-4.31c.63-1.19,1.49-2.1,2.58-2.72,1.09-.62,2.31-.94,3.67-.94.88,0,1.7.12,2.46.37.76.25,1.43.61,2.02,1.08.59.47,1.07,1.05,1.45,1.73.37.68.62,1.46.74,2.34h-3.21c-.07-.43-.2-.81-.4-1.14s-.44-.61-.74-.84-.63-.41-1.01-.53c-.38-.12-.79-.18-1.24-.18-.8,0-1.51.2-2.12.6-.61.4-1.08.99-1.42,1.75s-.5,1.7-.5,2.79.17,2.06.51,2.82c.34.76.81,1.34,1.42,1.73.6.39,1.3.58,2.1.58.44,0,.85-.06,1.23-.18.38-.12.72-.3,1.02-.53s.55-.52.75-.85c.2-.33.33-.71.41-1.13h3.21c-.08.72-.3,1.41-.64,2.07-.34.66-.8,1.25-1.37,1.77-.57.52-1.25.93-2.03,1.23s-1.66.45-2.64.45Z" style="fill:#252518; opacity:.5;"/><path d="M54.47,15.92c-1.37,0-2.6-.31-3.69-.94-1.09-.62-1.96-1.53-2.59-2.72-.63-1.19-.95-2.62-.95-4.3s.32-3.12.95-4.31c.63-1.19,1.5-2.1,2.59-2.72,1.09-.62,2.32-.94,3.69-.94s2.6.31,3.69.94c1.09.62,1.95,1.53,2.59,2.72.63,1.19.95,2.63.95,4.31s-.32,3.11-.95,4.3c-.63,1.19-1.5,2.09-2.59,2.72-1.09.62-2.32.94-3.69.94ZM54.47,13.1c.8,0,1.51-.2,2.11-.59.6-.39,1.07-.97,1.4-1.74.33-.77.5-1.7.5-2.8s-.17-2.06-.5-2.82-.8-1.35-1.4-1.74c-.6-.39-1.3-.59-2.11-.59s-1.5.2-2.1.59-1.07.98-1.4,1.74c-.33.77-.5,1.7-.5,2.81s.17,2.04.5,2.8.8,1.34,1.4,1.74,1.3.59,2.1.59Z" style="fill:#252518; opacity:.5;"/><path d="M64.08,15.71V.21h3.54l4.9,7.84c.25.4.5.84.76,1.31.26.47.52,1,.79,1.57.27.58.53,1.22.8,1.95h-.32c-.05-.58-.09-1.19-.13-1.84-.04-.65-.07-1.28-.1-1.87-.03-.6-.04-1.1-.04-1.52V.21h3.25v15.5h-3.55l-4.45-7.12c-.33-.53-.63-1.05-.9-1.56-.28-.5-.57-1.06-.87-1.66s-.66-1.33-1.08-2.18h.41c.04.75.08,1.47.12,2.15.04.69.07,1.31.1,1.87.02.56.04,1.01.04,1.37v7.13h-3.25Z" style="fill:#252518; opacity:.5;"/><path d="M80.32,15.71V.21h3.54l4.9,7.84c.25.4.5.84.76,1.31.26.47.52,1,.79,1.57.27.58.53,1.22.8,1.95h-.32c-.05-.58-.09-1.19-.13-1.84-.04-.65-.07-1.28-.1-1.87-.03-.6-.04-1.1-.04-1.52V.21h3.25v15.5h-3.55l-4.45-7.12c-.33-.53-.63-1.05-.9-1.56-.28-.5-.57-1.06-.87-1.66s-.66-1.33-1.08-2.18h.41c.04.75.08,1.47.12,2.15.04.69.07,1.31.1,1.87.02.56.04,1.01.04,1.37v7.13h-3.25Z" style="fill:#252518; opacity:.5;"/></g></svg>